<svg height="34.666668" viewBox="0 0 53.333332 34.666668" width="53.333332" xmlns="http://www.w3.org/2000/svg"><g transform="matrix(.13333333 0 0 -.13333333 0 34.666667)"><path d="m400 0h-400v260h400z" fill="#47b1de"/><path d="m316.445 90-11.765 16.656-11.438-16.656h-200.5662l-6.0156 12.703h-14.4024l-5.8125-12.703h-39.6289l40.2539 80h25.0391l20.9376-41.301v41.301h40.273l9.754-23.445 9.824 23.445h122.707l9.571-13.492 9.179 13.492h44.688l-30.547-38.383 33.262-41.617z" fill="#eee"/><path d="m294.199 131.355-23.105 28.645h19.344l14.894-21.02 14.316 21.02h18.653l-22.598-28.395 25.254-31.605h-19.336l-17.07 24.148-16.563-24.148h-18.269zm-77.82 28.645h44.969v-12.203h-30.371v-11.188h25.41v-12.199h-25.41v-12.207h32.07v-12.203h-46.668zm-93.332 0h23.594l16.308-39.148h.196l16.406 39.148h23.496v-60h-15.606v46.016h-.195l-18.601-46.016h-11.907l-17.89 46.016h-.203v-46.016h-15.598zm-43.8868-17.445-8.4883-18.664h17.082zm-5.918 17.445h12.7344l30.4024-60h-17.3751l-6.0156 12.703h-27.1485l-5.8203-12.703h-16.9726z" fill="#47b1de"/></g></svg>